{"glyphs":{"0":{"ha":1014,"x_min":75,"x_max":939,"o":"m 128 230 q 279 50 180 116 q 505 -17 378 -17 q 732 50 632 -17 q 885 232 831 117 q 939 488 939 347 q 908 686 939 593 q 822 845 877 778 q 685 950 766 911 q 509 989 604 989 q 282 922 382 989 q 129 741 182 855 q 75 485 75 626 q 102 287 75 344 q 128 230 128 230 m 294 488 q 352 710 294 624 q 505 796 410 796 q 660 708 601 796 q 720 485 720 620 q 662 263 720 350 q 509 176 604 176 q 354 264 413 176 q 294 488 294 352 "},"1":{"ha":586,"x_min":33,"x_max":458,"o":"m 33 896 l 78 721 l 248 762 l 248 0 l 458 0 l 458 979 l 313 979 l 33 896 "},"2":{"ha":865,"x_min":68,"x_max":787,"o":"m 68 0 l 787 0 l 787 184 l 364 184 l 522 307 q 636 401 595 363 q 713 484 677 438 q 763 577 749 530 q 778 685 778 625 q 688 904 778 822 q 443 986 597 986 q 238 938 319 986 q 81 785 157 890 l 231 664 q 331 764 288 734 q 429 794 375 794 q 524 761 488 794 q 559 668 559 728 q 523 562 559 610 q 392 435 487 513 l 68 170 l 68 0 "},"3":{"ha":862,"x_min":53,"x_max":782,"o":"m 53 151 q 432 -17 195 -17 q 687 73 592 -17 q 782 302 782 162 q 761 418 782 368 q 701 500 739 469 q 618 549 663 531 q 521 576 574 568 l 766 811 l 766 972 l 110 972 l 110 789 l 492 789 l 260 555 l 293 419 l 382 419 q 523 387 473 419 q 572 294 572 355 q 534 207 572 239 q 435 175 496 175 q 308 204 363 175 q 200 292 252 233 l 53 151 "},"4":{"ha":957,"x_min":43,"x_max":888,"o":"m 43 361 l 78 210 l 553 210 l 553 0 l 757 0 l 757 210 l 888 210 l 888 383 l 757 383 l 757 979 l 576 979 l 43 361 m 294 383 l 553 686 l 553 383 l 294 383 "},"5":{"ha":875,"x_min":60,"x_max":793,"o":"m 60 129 q 424 -17 212 -17 q 692 75 592 -17 q 793 321 793 166 q 767 463 793 401 q 694 561 741 524 q 587 615 648 597 q 453 633 527 633 q 325 616 394 633 l 336 785 l 750 785 l 750 972 l 153 972 l 125 493 l 249 411 q 411 447 333 447 q 537 412 490 447 q 583 314 583 377 q 540 213 583 249 q 421 178 496 178 q 303 204 359 178 q 189 283 248 231 l 60 129 "},"6":{"ha":919,"x_min":75,"x_max":842,"o":"m 75 457 q 105 231 75 318 q 191 87 134 144 q 471 -17 295 -17 q 660 25 575 -17 q 793 145 745 68 q 842 321 842 222 q 796 491 842 420 q 674 597 751 563 q 500 632 598 632 q 390 615 435 632 q 298 570 344 599 q 358 733 309 671 q 494 794 408 794 q 596 776 553 794 q 693 717 640 758 l 806 882 q 666 962 736 936 q 501 989 595 989 q 346 962 416 989 q 225 888 275 936 q 142 774 176 841 q 92 628 108 708 q 75 457 75 549 m 293 313 q 337 415 293 376 q 460 454 382 454 q 584 415 538 454 q 629 311 629 375 q 585 207 629 246 q 463 167 541 167 q 339 208 385 167 q 293 313 293 248 "},"7":{"ha":859,"x_min":94,"x_max":794,"o":"m 94 787 l 551 787 l 117 0 l 358 0 l 794 811 l 794 972 l 94 972 l 94 787 "},"8":{"ha":875,"x_min":62,"x_max":812,"o":"m 62 268 q 111 119 62 184 q 245 21 160 55 q 437 -14 330 -14 q 630 20 545 -14 q 763 119 714 53 q 812 273 812 184 q 773 410 812 357 q 656 504 734 463 q 748 592 716 541 q 779 718 779 643 q 684 909 779 833 q 437 986 589 986 q 191 909 286 986 q 96 718 96 833 q 127 592 96 643 q 220 504 159 541 q 101 411 140 467 q 62 268 62 355 m 269 285 q 316 373 269 341 q 437 406 363 406 q 559 373 512 406 q 606 285 606 341 q 560 197 606 231 q 437 163 515 163 q 315 197 360 163 q 269 285 269 231 m 298 696 q 336 777 298 743 q 437 810 374 810 q 538 776 500 810 q 576 694 576 743 q 538 609 576 642 q 437 575 500 575 q 337 609 375 575 q 298 696 298 643 "},"9":{"ha":919,"x_min":78,"x_max":844,"o":"m 78 647 q 172 415 78 499 q 425 332 266 332 q 623 399 543 332 q 562 237 612 297 q 425 178 512 178 q 316 197 365 178 q 212 261 267 217 l 100 98 q 243 13 167 43 q 419 -17 319 -17 q 651 51 555 -17 q 796 237 748 118 q 844 515 844 356 q 814 741 844 653 q 729 884 785 828 q 609 964 673 940 q 449 989 546 989 q 181 892 285 989 q 78 647 78 796 m 290 657 q 334 765 290 724 q 456 806 378 806 q 581 764 535 806 q 627 656 627 722 q 582 550 627 591 q 460 510 538 510 q 336 550 381 510 q 290 657 290 591 "}," ":{"ha":416,"x_min":0,"x_max":0,"o":""},"!":{"ha":450,"x_min":102,"x_max":349,"o":"m 102 945 l 167 330 l 283 330 l 349 945 l 349 972 l 102 972 l 102 945 m 113 0 l 338 0 l 338 222 l 113 222 l 113 0 "},"\"":{"ha":722,"x_min":79,"x_max":665,"o":"m 79 529 l 186 529 l 338 965 l 338 972 l 104 972 l 79 529 m 407 529 l 514 529 l 665 965 l 665 972 l 432 972 l 407 529 "},"#":{"ha":972,"x_min":49,"x_max":924,"o":"m 49 208 l 154 208 l 118 0 l 301 0 l 338 208 l 539 208 l 503 0 l 686 0 l 722 208 l 875 208 l 875 386 l 753 386 l 787 591 l 924 591 l 924 770 l 818 770 l 852 972 l 669 972 l 635 770 l 433 770 l 468 972 l 285 972 l 250 770 l 97 770 l 97 591 l 220 591 l 184 386 l 49 386 l 49 208 m 368 386 l 403 591 l 604 591 l 570 386 l 368 386 "},"$":{"ha":897,"x_min":61,"x_max":828,"o":"m 61 136 q 389 4 204 28 l 389 -136 l 533 -136 l 533 1 q 748 90 667 16 q 828 277 828 163 q 756 463 828 393 q 526 576 685 534 l 526 786 q 699 704 609 764 l 791 867 q 533 970 672 951 l 533 1053 l 389 1053 l 389 972 q 176 885 256 958 q 97 699 97 812 q 169 512 97 579 q 396 403 240 445 l 396 182 q 170 294 289 204 l 61 136 m 300 711 q 324 769 300 746 q 396 799 348 792 l 396 611 q 320 654 341 631 q 300 711 300 677 m 526 175 l 526 370 q 604 326 582 349 q 625 265 625 302 q 526 175 625 189 "},"%":{"ha":1194,"x_min":62,"x_max":1132,"o":"m 62 733 q 128 557 62 628 q 297 486 193 486 q 468 558 401 486 q 534 736 534 630 q 469 912 534 841 q 300 983 404 983 q 129 911 195 983 q 62 733 62 839 m 160 0 l 325 0 l 1035 972 l 869 972 l 160 0 m 232 822 q 297 857 255 857 q 363 821 338 857 q 389 733 389 785 q 365 647 389 682 q 300 612 342 612 q 234 648 259 612 q 208 736 208 684 q 220 805 208 787 q 232 822 232 822 m 660 236 q 725 60 660 131 q 895 -11 791 -11 q 1065 61 999 -11 q 1132 239 1132 133 q 1066 415 1132 344 q 897 486 1001 486 q 726 414 793 486 q 660 236 660 342 m 829 325 q 895 359 852 359 q 961 323 935 359 q 986 236 986 288 q 963 150 986 184 q 897 115 939 115 q 831 151 857 115 q 806 239 806 187 q 817 308 806 290 q 829 325 829 325 "},"&":{"ha":966,"x_min":47,"x_max":928,"o":"m 47 268 q 90 118 47 183 q 207 20 133 54 q 374 -14 281 -14 q 659 94 527 -14 l 771 -20 l 928 90 l 785 233 q 913 439 842 309 l 755 525 q 661 358 707 431 l 532 488 q 736 743 736 568 q 660 919 736 849 q 463 989 585 989 q 338 968 395 989 q 245 911 281 947 q 188 829 208 875 q 168 732 168 783 q 236 536 168 633 q 47 268 47 450 m 262 277 q 353 406 262 359 l 539 216 q 399 161 468 161 q 301 193 339 161 q 262 277 262 225 m 364 722 q 390 794 364 767 q 458 822 416 822 q 525 798 500 822 q 550 730 550 773 q 519 655 550 685 q 421 600 488 625 q 377 663 390 636 q 364 722 364 690 "},"'":{"ha":397,"x_min":79,"x_max":340,"o":"m 79 529 l 189 529 l 340 965 l 340 972 l 104 972 l 79 529 "},"(":{"ha":618,"x_min":82,"x_max":559,"o":"m 177 55 q 467 -196 273 -91 l 559 -56 q 354 149 417 44 q 292 399 292 254 q 354 648 292 544 q 559 852 417 753 l 467 993 q 177 742 273 888 q 82 399 82 597 q 130 128 82 201 q 177 55 177 55 "},")":{"ha":618,"x_min":58,"x_max":536,"o":"m 58 -56 l 151 -196 q 441 55 345 -91 q 536 399 536 201 q 441 742 536 597 q 151 993 345 888 l 58 852 q 263 648 201 753 q 326 399 326 544 q 263 149 326 254 q 58 -56 201 44 "},"*":{"ha":597,"x_min":71,"x_max":526,"o":"m 71 681 l 129 581 l 264 684 l 241 517 l 355 517 l 334 684 l 468 581 l 526 681 l 371 746 l 526 811 l 468 911 l 334 808 l 355 975 l 241 975 l 264 808 l 129 911 l 71 811 l 227 746 l 71 681 "},"+":{"ha":888,"x_min":94,"x_max":794,"o":"m 94 393 l 346 393 l 346 143 l 543 143 l 543 393 l 794 393 l 794 585 l 543 585 l 543 835 l 346 835 l 346 585 l 94 585 l 94 393 "},",":{"ha":397,"x_min":36,"x_max":311,"o":"m 36 -138 l 54 -225 q 247 -161 182 -223 q 311 35 311 -99 l 311 222 l 86 222 l 86 0 l 172 0 q 142 -95 178 -60 q 36 -138 107 -131 "},"-":{"ha":566,"x_min":69,"x_max":497,"o":"m 69 329 l 497 329 l 497 532 l 69 532 l 69 329 "},".":{"ha":397,"x_min":86,"x_max":311,"o":"m 86 0 l 311 0 l 311 222 l 86 222 l 86 0 "},"/":{"ha":736,"x_min":-39,"x_max":755,"o":"m -39 -178 l 140 -178 l 755 1108 l 576 1108 l -39 -178 "},":":{"ha":411,"x_min":93,"x_max":318,"o":"m 93 0 l 318 0 l 318 222 l 93 222 l 93 0 m 93 522 l 318 522 l 318 745 l 93 745 l 93 522 "},";":{"ha":411,"x_min":43,"x_max":318,"o":"m 43 -138 l 61 -225 q 253 -161 189 -223 q 318 35 318 -99 l 318 222 l 93 222 l 93 0 l 179 0 q 149 -95 184 -60 q 43 -138 114 -131 m 93 522 l 318 522 l 318 745 l 93 745 l 93 522 "},"<":{"ha":888,"x_min":94,"x_max":766,"o":"m 94 393 l 766 98 l 766 297 l 297 490 l 766 684 l 766 879 l 94 585 l 94 393 "},"=":{"ha":888,"x_min":115,"x_max":774,"o":"m 115 212 l 774 212 l 774 404 l 115 404 l 115 212 m 115 574 l 774 574 l 774 765 l 115 765 l 115 574 "},">":{"ha":888,"x_min":122,"x_max":794,"o":"m 122 98 l 794 393 l 794 585 l 122 879 l 122 681 l 591 488 l 122 294 l 122 98 "},"?":{"ha":755,"x_min":28,"x_max":704,"o":"m 28 835 l 155 694 q 364 790 251 790 q 458 764 425 790 q 492 690 492 738 q 434 600 492 632 q 249 562 376 567 l 241 555 l 273 330 l 415 330 l 431 415 q 538 447 491 427 q 624 500 585 467 q 683 582 663 532 q 704 696 704 631 q 613 909 704 833 q 368 985 522 985 q 28 835 164 985 m 228 0 l 453 0 l 453 222 l 228 222 l 228 0 "},"@":{"ha":1361,"x_min":74,"x_max":1287,"o":"m 74 380 q 95 220 74 298 q 155 76 117 142 q 250 -46 194 9 q 374 -142 307 -102 q 524 -203 442 -181 q 693 -225 606 -225 q 1061 -121 890 -225 l 1034 -77 q 872 -147 952 -124 q 693 -170 793 -170 q 468 -126 572 -170 q 290 -9 363 -83 q 174 166 216 64 q 132 380 132 267 q 159 555 132 471 q 236 707 186 639 q 353 826 286 775 q 505 905 420 877 q 682 933 590 933 q 899 892 796 933 q 1073 782 1002 850 q 1187 624 1145 714 q 1229 439 1229 534 q 1179 230 1229 305 q 1053 155 1129 155 q 979 180 1006 155 q 951 243 951 204 q 956 286 951 266 l 1021 660 l 857 686 l 842 612 q 650 707 772 707 q 498 661 569 707 q 383 534 427 615 q 339 358 339 454 q 411 163 339 237 q 593 90 484 90 q 799 174 706 90 q 1011 90 871 90 q 1119 113 1069 90 q 1206 177 1168 135 q 1265 287 1244 220 q 1287 439 1287 354 q 1240 645 1287 545 q 1113 821 1193 745 q 920 943 1033 897 q 682 989 806 989 q 444 940 557 989 q 250 809 331 891 q 121 615 169 727 q 74 380 74 503 m 511 368 q 560 507 511 451 q 677 564 609 564 q 771 528 734 564 q 807 433 807 492 q 758 291 807 349 q 642 233 708 233 q 547 269 583 233 q 511 368 511 305 "},"A":{"ha":1097,"x_min":33,"x_max":1064,"o":"m 33 0 l 252 0 l 340 218 l 751 218 l 840 0 l 1064 0 l 647 979 l 450 979 l 33 0 m 416 407 l 546 722 l 675 407 l 416 407 "},"B":{"ha":1002,"x_min":117,"x_max":943,"o":"m 117 0 l 579 0 q 846 68 748 0 q 943 267 943 136 l 943 269 q 897 419 943 363 q 761 509 851 475 q 889 718 889 581 l 889 721 q 803 904 889 836 q 568 972 717 972 l 117 972 l 117 0 m 325 187 l 325 401 l 572 401 q 691 374 652 401 q 730 296 730 346 l 730 293 q 691 214 730 240 q 579 187 652 187 l 325 187 m 325 579 l 325 785 l 536 785 q 640 759 604 785 q 676 685 676 733 l 676 682 q 522 579 676 579 l 325 579 "},"C":{"ha":1025,"x_min":74,"x_max":971,"o":"m 74 484 q 138 231 74 345 q 317 50 203 116 q 572 -17 432 -17 q 798 26 705 -17 q 971 157 890 70 l 835 294 q 713 208 770 236 q 579 180 656 180 q 377 270 456 180 q 297 486 297 359 l 297 489 q 377 704 297 616 q 579 791 458 791 q 709 764 649 791 q 828 682 768 736 l 964 839 q 800 950 890 911 q 581 989 709 989 q 318 921 435 989 q 138 739 201 853 q 74 486 74 624 l 74 484 "},"D":{"ha":1086,"x_min":117,"x_max":1013,"o":"m 117 0 l 496 0 q 705 38 608 0 q 869 140 802 75 q 975 295 937 205 q 1013 486 1013 385 l 1013 489 q 975 680 1013 591 q 869 833 937 769 q 705 935 802 898 q 496 972 608 972 l 117 972 l 117 0 m 330 193 l 330 779 l 496 779 q 708 697 627 779 q 789 486 789 616 l 789 484 q 708 274 789 354 q 496 193 627 193 l 330 193 "},"E":{"ha":930,"x_min":117,"x_max":857,"o":"m 117 0 l 857 0 l 857 191 l 329 191 l 329 395 l 787 395 l 787 585 l 329 585 l 329 782 l 850 782 l 850 972 l 117 972 l 117 0 "},"F":{"ha":911,"x_min":117,"x_max":857,"o":"m 117 0 l 330 0 l 330 376 l 794 376 l 794 571 l 330 571 l 330 778 l 857 778 l 857 972 l 117 972 l 117 0 "},"G":{"ha":1088,"x_min":74,"x_max":1000,"o":"m 74 484 q 112 284 74 377 q 216 125 149 192 q 377 21 282 59 q 585 -17 473 -17 q 1000 138 819 -17 l 1000 559 l 578 559 l 578 375 l 793 375 l 793 236 q 591 178 711 178 q 380 265 463 178 q 297 486 297 353 l 297 489 q 379 703 297 614 q 576 791 460 791 q 712 768 656 791 q 831 693 769 744 l 965 856 q 797 956 884 924 q 583 989 709 989 q 380 949 475 989 q 218 842 285 909 q 113 681 151 774 q 74 486 74 589 l 74 484 "},"H":{"ha":1055,"x_min":117,"x_max":939,"o":"m 117 0 l 330 0 l 330 390 l 725 390 l 725 0 l 939 0 l 939 972 l 725 972 l 725 587 l 330 587 l 330 972 l 117 972 l 117 0 "},"I":{"ha":467,"x_min":126,"x_max":340,"o":"m 126 0 l 340 0 l 340 972 l 126 972 l 126 0 "},"J":{"ha":783,"x_min":20,"x_max":682,"o":"m 20 132 q 338 -14 142 -14 q 590 75 497 -14 q 682 336 682 164 l 682 972 l 463 972 l 463 346 q 428 224 463 264 q 332 184 394 184 q 240 209 283 184 q 154 282 198 233 l 20 132 "},"K":{"ha":1014,"x_min":117,"x_max":1002,"o":"m 117 0 l 330 0 l 330 297 l 443 414 l 745 0 l 1002 0 l 587 559 l 983 972 l 725 972 l 330 547 l 330 972 l 117 972 l 117 0 "},"L":{"ha":859,"x_min":117,"x_max":815,"o":"m 117 0 l 815 0 l 815 195 l 330 195 l 330 972 l 117 972 l 117 0 "},"M":{"ha":1205,"x_min":117,"x_max":1089,"o":"m 117 0 l 326 0 l 326 631 l 597 220 l 603 220 l 876 635 l 876 0 l 1089 0 l 1089 972 l 859 972 l 603 561 l 347 972 l 117 972 l 117 0 "},"N":{"ha":1097,"x_min":117,"x_max":981,"o":"m 117 0 l 328 0 l 328 618 l 799 0 l 981 0 l 981 972 l 770 972 l 770 374 l 314 972 l 117 972 l 117 0 "},"O":{"ha":1180,"x_min":74,"x_max":1107,"o":"m 74 484 q 113 289 74 381 q 218 129 151 197 q 382 22 286 62 q 589 -17 479 -17 q 795 23 699 -17 q 960 131 892 63 q 1067 291 1028 199 q 1107 486 1107 384 l 1107 489 q 1041 740 1107 626 q 857 922 975 854 q 591 989 738 989 q 385 949 481 989 q 220 842 288 909 q 113 681 152 774 q 74 486 74 589 l 74 484 m 297 486 l 297 489 q 334 641 297 572 q 437 751 370 710 q 589 791 505 791 q 800 702 716 791 q 884 486 884 613 l 884 484 q 847 332 884 401 q 743 221 810 262 q 591 180 675 180 q 439 222 507 180 q 334 334 372 264 q 297 486 297 404 "},"P":{"ha":928,"x_min":117,"x_max":886,"o":"m 117 0 l 330 0 l 330 292 l 493 292 q 647 314 576 292 q 771 378 718 336 q 856 486 825 420 q 886 633 886 551 l 886 636 q 786 880 886 787 q 514 972 686 972 l 117 972 l 117 0 m 330 482 l 330 779 l 496 779 q 623 741 577 779 q 669 632 669 703 l 669 629 q 624 524 669 565 q 500 482 578 482 l 330 482 "},"Q":{"ha":1180,"x_min":74,"x_max":1121,"o":"m 74 484 q 113 289 74 381 q 218 129 151 197 q 382 22 286 62 q 589 -17 479 -17 q 878 66 748 -17 l 985 -29 l 1121 122 l 1021 207 q 1107 486 1107 332 l 1107 489 q 1041 740 1107 626 q 857 922 975 854 q 591 989 738 989 q 385 949 481 989 q 220 842 288 909 q 113 681 152 774 q 74 486 74 589 l 74 484 m 297 486 l 297 489 q 334 641 297 572 q 437 751 370 710 q 589 791 505 791 q 800 702 716 791 q 884 486 884 613 l 884 484 q 857 350 884 408 l 697 494 l 561 342 l 720 207 q 591 180 661 180 q 439 222 507 180 q 334 334 372 264 q 297 486 297 404 "},"R":{"ha":1004,"x_min":117,"x_max":957,"o":"m 117 0 l 330 0 l 330 311 l 498 311 l 707 0 l 957 0 l 720 347 q 872 459 817 383 q 928 648 928 535 l 928 652 q 830 887 928 802 q 561 972 732 972 l 117 972 l 117 0 m 330 500 l 330 779 l 543 779 q 667 744 623 779 q 711 640 711 708 l 711 637 q 668 537 711 575 q 547 500 625 500 l 330 500 "},"S":{"ha":888,"x_min":50,"x_max":819,"o":"m 50 142 q 243 26 136 65 q 463 -14 350 -14 q 721 66 623 -14 q 819 288 819 146 l 819 290 q 800 400 819 353 q 739 481 780 447 q 643 538 697 515 q 511 582 589 562 q 342 639 382 614 q 301 710 301 663 l 301 713 q 334 774 301 750 q 427 798 367 798 q 679 701 540 798 l 790 863 q 429 986 637 986 q 184 905 279 986 q 89 693 89 825 l 89 690 q 97 616 89 650 q 118 556 104 582 q 154 508 132 530 q 201 471 177 486 q 262 440 226 455 q 331 415 298 426 q 411 393 365 405 q 535 354 492 373 q 592 317 577 336 q 607 269 607 298 l 607 267 q 570 199 607 224 q 467 175 532 175 q 176 293 320 175 l 50 142 "},"T":{"ha":900,"x_min":47,"x_max":852,"o":"m 47 775 l 343 775 l 343 0 l 557 0 l 557 775 l 852 775 l 852 972 l 47 972 l 47 775 "},"U":{"ha":1050,"x_min":102,"x_max":949,"o":"m 102 416 q 212 95 102 205 q 522 -16 323 -16 q 836 96 723 -16 q 949 424 949 208 l 949 972 l 734 972 l 734 415 q 680 241 734 301 q 525 182 625 182 q 370 243 425 182 q 315 422 315 305 l 315 972 l 102 972 l 102 416 "},"V":{"ha":1042,"x_min":33,"x_max":1008,"o":"m 33 972 l 427 -7 l 615 -7 l 1008 972 l 778 972 l 524 288 l 269 972 l 33 972 "},"W":{"ha":1558,"x_min":41,"x_max":1516,"o":"m 41 972 l 374 -7 l 559 -7 l 779 629 l 999 -7 l 1185 -7 l 1516 972 l 1293 972 l 1092 314 l 873 975 l 690 975 l 472 314 l 271 972 l 41 972 "},"X":{"ha":1017,"x_min":43,"x_max":974,"o":"m 43 0 l 286 0 l 505 334 l 724 0 l 974 0 l 635 497 l 960 972 l 717 972 l 511 657 l 307 972 l 57 972 l 382 494 l 43 0 "},"Y":{"ha":994,"x_min":17,"x_max":978,"o":"m 17 972 l 390 383 l 390 0 l 604 0 l 604 387 l 978 972 l 734 972 l 498 582 l 267 972 l 17 972 "},"Z":{"ha":983,"x_min":87,"x_max":897,"o":"m 87 0 l 897 0 l 897 187 l 363 187 l 897 810 l 897 972 l 104 972 l 104 785 l 623 785 l 87 163 l 87 0 "},"[":{"ha":646,"x_min":115,"x_max":564,"o":"m 115 -180 l 564 -180 l 564 -16 l 318 -16 l 318 807 l 564 807 l 564 972 l 115 972 l 115 -180 "},"\\":{"ha":736,"x_min":-20,"x_max":775,"o":"m -20 1108 l 596 -178 l 775 -178 l 160 1108 l -20 1108 "},"]":{"ha":646,"x_min":82,"x_max":530,"o":"m 82 -16 l 82 -180 l 530 -180 l 530 972 l 82 972 l 82 807 l 328 807 l 328 -16 l 82 -16 "},"^":{"ha":694,"x_min":69,"x_max":625,"o":"m 69 685 l 220 685 l 346 847 l 472 685 l 625 685 l 419 972 l 275 972 l 69 685 "},"_":{"ha":833,"x_min":-3,"x_max":836,"o":"m -3 -61 l -3 -222 l 836 -222 l 836 -61 l -3 -61 "},"`":{"ha":694,"x_min":153,"x_max":492,"o":"m 153 993 l 330 827 l 492 827 l 335 1072 l 153 993 "},"a":{"ha":822,"x_min":50,"x_max":734,"o":"m 50 214 q 123 47 50 107 q 306 -14 196 -14 q 530 81 445 -14 l 530 0 l 734 0 l 734 432 q 653 670 734 587 q 403 753 572 753 q 248 738 315 753 q 114 693 182 723 l 167 532 q 372 572 277 572 q 491 537 451 572 q 532 436 532 503 l 532 424 q 350 454 444 454 q 131 394 212 454 q 50 216 50 334 l 50 214 m 254 222 l 254 225 q 293 301 254 275 q 400 328 332 328 q 534 300 475 328 l 534 262 q 489 169 534 205 q 370 132 443 132 q 286 156 318 132 q 254 222 254 180 "},"b":{"ha":937,"x_min":94,"x_max":876,"o":"m 94 0 l 306 0 l 306 97 q 538 -14 399 -14 q 665 12 605 -14 q 773 85 726 37 q 848 207 821 132 q 876 371 876 281 l 876 374 q 848 538 876 464 q 772 660 819 612 q 664 733 724 707 q 538 758 604 758 q 306 637 396 758 l 306 1014 l 94 1014 l 94 0 m 302 371 l 302 374 q 355 522 302 465 q 484 579 408 579 q 612 522 559 579 q 665 374 665 464 l 665 371 q 612 222 665 279 q 484 165 559 165 q 355 223 408 165 q 302 371 302 280 "},"c":{"ha":793,"x_min":58,"x_max":750,"o":"m 58 368 q 108 175 58 263 q 247 35 157 87 q 446 -17 336 -17 q 620 18 549 -17 q 750 119 690 53 l 627 244 q 545 185 585 205 q 456 165 506 165 q 319 224 371 165 q 267 371 267 283 l 267 374 q 318 517 267 458 q 447 576 369 576 q 538 556 500 576 q 616 494 577 536 l 746 633 q 621 727 691 695 q 449 758 550 758 q 248 706 338 758 q 108 565 157 653 q 58 371 58 477 l 58 368 "},"d":{"ha":937,"x_min":61,"x_max":843,"o":"m 61 371 q 90 207 61 281 q 166 85 118 132 q 274 12 214 37 q 400 -14 334 -14 q 632 107 542 -14 l 632 0 l 843 0 l 843 1014 l 632 1014 l 632 647 q 400 758 538 758 q 273 733 333 758 q 165 660 212 707 q 89 538 117 612 q 61 374 61 464 l 61 371 m 272 371 l 272 374 q 325 522 272 465 q 454 579 378 579 q 582 522 530 579 q 635 374 635 465 l 635 371 q 582 223 635 280 q 454 165 530 165 q 325 223 378 165 q 272 371 272 281 "},"e":{"ha":851,"x_min":58,"x_max":789,"o":"m 58 368 q 168 91 58 199 q 447 -17 278 -17 q 751 122 640 -17 l 631 229 q 545 171 587 189 q 450 153 503 153 q 331 190 379 153 q 268 298 283 227 l 786 298 q 789 351 789 338 l 789 354 q 767 506 789 435 q 702 635 745 578 q 588 725 659 692 q 427 758 517 758 q 236 706 321 758 q 105 565 151 653 q 58 371 58 477 l 58 368 m 265 431 q 320 546 278 504 q 427 589 362 589 q 533 546 492 589 q 583 431 574 503 l 265 431 "},"f":{"ha":530,"x_min":43,"x_max":511,"o":"m 43 564 l 131 564 l 131 0 l 342 0 l 342 564 l 510 564 l 510 736 l 339 736 l 339 765 q 415 846 339 846 q 511 828 462 846 l 511 1003 q 361 1023 447 1023 q 131 785 131 1023 l 131 737 l 43 737 l 43 564 "},"g":{"ha":937,"x_min":61,"x_max":843,"o":"m 61 408 q 88 261 61 328 q 161 152 115 195 q 267 85 208 109 q 392 61 326 61 q 528 91 472 61 q 635 182 585 121 l 635 146 q 422 -57 635 -57 q 171 11 292 -57 l 98 -147 q 428 -225 245 -225 q 741 -132 640 -225 q 843 168 843 -39 l 843 745 l 632 745 l 632 647 q 528 729 583 701 q 392 758 472 758 q 268 735 328 758 q 162 668 209 711 q 89 558 116 625 q 61 411 61 492 l 61 408 m 272 408 l 272 411 q 323 535 272 487 q 453 583 375 583 q 583 535 531 583 q 635 411 635 486 l 635 408 q 583 284 635 333 q 453 236 531 236 q 323 284 375 236 q 272 408 272 332 "},"h":{"ha":865,"x_min":94,"x_max":777,"o":"m 94 0 l 306 0 l 306 415 q 341 528 306 489 q 437 567 376 567 q 532 528 498 567 q 566 415 566 489 l 566 0 l 777 0 l 777 482 q 710 685 777 611 q 524 758 643 758 q 400 726 450 758 q 306 639 349 694 l 306 1014 l 94 1014 l 94 0 "},"i":{"ha":419,"x_min":98,"x_max":321,"o":"m 98 827 l 321 827 l 321 1014 l 98 1014 l 98 827 m 104 0 l 315 0 l 315 745 l 104 745 l 104 0 "},"j":{"ha":419,"x_min":-16,"x_max":321,"o":"m -16 -53 l -16 -218 q 77 -227 28 -227 q 315 12 315 -227 l 315 745 l 104 745 l 104 29 q 29 -57 104 -57 q -16 -53 9 -57 m 98 827 l 321 827 l 321 1014 l 98 1014 l 98 827 "},"k":{"ha":822,"x_min":94,"x_max":815,"o":"m 94 0 l 306 0 l 306 227 l 379 304 l 574 0 l 815 0 l 522 452 l 806 745 l 553 745 l 306 473 l 306 1014 l 94 1014 l 94 0 "},"l":{"ha":419,"x_min":104,"x_max":315,"o":"m 104 0 l 315 0 l 315 1014 l 104 1014 l 104 0 "},"m":{"ha":1319,"x_min":94,"x_max":1231,"o":"m 94 0 l 306 0 l 306 415 q 339 528 306 489 q 433 567 373 567 q 525 528 493 567 q 557 415 557 490 l 557 0 l 768 0 l 768 415 q 802 528 768 489 q 896 567 836 567 q 987 528 956 567 q 1019 415 1019 490 l 1019 0 l 1231 0 l 1231 485 q 1164 688 1231 618 q 979 758 1098 758 q 734 640 835 758 q 651 728 705 697 q 525 758 597 758 q 400 726 452 758 q 306 639 349 694 l 306 745 l 94 745 l 94 0 "},"n":{"ha":865,"x_min":94,"x_max":777,"o":"m 94 0 l 306 0 l 306 415 q 341 528 306 489 q 437 567 376 567 q 532 528 498 567 q 566 415 566 489 l 566 0 l 777 0 l 777 482 q 710 685 777 611 q 524 758 643 758 q 400 726 450 758 q 306 639 349 694 l 306 745 l 94 745 l 94 0 "},"o":{"ha":922,"x_min":58,"x_max":864,"o":"m 58 368 q 110 174 58 262 q 254 35 162 86 q 460 -17 347 -17 q 667 35 574 -17 q 812 176 760 87 q 864 371 864 265 l 864 374 q 812 568 864 479 q 668 707 760 656 q 463 758 576 758 q 302 728 377 758 q 173 645 227 697 q 89 522 120 593 q 58 371 58 450 l 58 368 m 267 371 l 267 374 q 319 518 267 459 q 460 576 372 576 q 601 516 545 576 q 656 371 656 456 l 656 368 q 603 224 656 283 q 463 165 550 165 q 322 226 377 165 q 267 371 267 286 "},"p":{"ha":937,"x_min":94,"x_max":876,"o":"m 94 -222 l 306 -222 l 306 97 q 538 -14 399 -14 q 665 12 605 -14 q 773 85 726 37 q 848 207 821 132 q 876 371 876 281 l 876 374 q 848 538 876 464 q 772 660 819 612 q 664 733 724 707 q 538 758 604 758 q 306 637 396 758 l 306 745 l 94 745 l 94 -222 m 302 371 l 302 374 q 355 522 302 465 q 484 579 408 579 q 612 522 559 579 q 665 374 665 464 l 665 371 q 612 222 665 279 q 484 165 559 165 q 355 223 408 165 q 302 371 302 280 "},"q":{"ha":937,"x_min":61,"x_max":843,"o":"m 61 371 q 90 207 61 281 q 166 85 118 132 q 274 12 214 37 q 400 -14 334 -14 q 632 107 542 -14 l 632 -222 l 843 -222 l 843 745 l 632 745 l 632 647 q 400 758 538 758 q 273 733 333 758 q 165 660 212 707 q 89 538 117 612 q 61 374 61 464 l 61 371 m 272 371 l 272 374 q 325 522 272 465 q 454 579 378 579 q 582 522 530 579 q 635 374 635 465 l 635 371 q 582 223 635 280 q 454 165 530 165 q 325 223 378 165 q 272 371 272 281 "},"r":{"ha":581,"x_min":94,"x_max":543,"o":"m 94 0 l 306 0 l 306 275 q 365 472 306 406 q 532 538 424 538 l 543 538 l 543 758 q 530 758 536 758 q 306 595 374 758 l 306 745 l 94 745 l 94 0 "},"s":{"ha":697,"x_min":36,"x_max":640,"o":"m 36 98 q 190 14 107 42 q 355 -14 273 -14 q 562 47 483 -14 q 640 227 640 108 l 640 229 q 626 301 640 269 q 592 356 612 334 q 539 397 572 378 q 479 427 506 416 q 415 450 452 438 q 407 453 412 452 q 400 455 403 454 q 393 458 397 456 q 326 482 349 473 q 283 506 302 491 q 264 539 264 522 l 264 542 q 284 578 264 564 q 342 593 304 593 q 543 524 424 593 l 624 669 q 490 733 564 710 q 346 755 416 755 q 152 692 229 755 q 74 519 74 629 l 74 517 q 87 441 74 475 q 121 385 101 407 q 173 343 142 362 q 232 314 205 325 q 296 293 259 304 q 322 285 306 290 q 349 277 339 280 q 372 270 358 275 q 394 262 386 265 q 413 254 402 258 q 429 244 423 249 q 440 234 435 239 q 448 221 446 228 q 450 207 450 214 l 450 204 q 428 163 450 178 q 361 149 406 149 q 126 237 249 149 l 36 98 "},"t":{"ha":576,"x_min":40,"x_max":515,"o":"m 40 564 l 129 564 l 129 211 q 185 38 129 89 q 346 -12 241 -12 q 513 31 440 -12 l 513 200 q 408 174 465 174 q 357 191 373 174 q 340 245 340 209 l 340 564 l 515 564 l 515 745 l 340 745 l 340 935 l 129 935 l 129 745 l 40 745 l 40 564 "},"u":{"ha":865,"x_min":89,"x_max":771,"o":"m 89 262 q 156 60 89 134 q 342 -14 222 -14 q 466 18 415 -14 q 559 106 516 50 l 559 0 l 771 0 l 771 745 l 559 745 l 559 329 q 525 217 559 256 q 428 178 490 178 q 333 216 367 178 q 300 329 300 255 l 300 745 l 89 745 l 89 262 "},"v":{"ha":833,"x_min":28,"x_max":806,"o":"m 28 745 l 321 -5 l 513 -5 l 806 745 l 586 745 l 418 245 l 252 745 l 28 745 "},"w":{"ha":1196,"x_min":33,"x_max":1162,"o":"m 33 745 l 262 -5 l 452 -5 l 597 452 l 741 -5 l 930 -5 l 1162 745 l 953 745 l 831 292 l 689 747 l 507 747 l 367 293 l 248 745 l 33 745 "},"x":{"ha":811,"x_min":32,"x_max":779,"o":"m 32 0 l 253 0 l 403 232 l 553 0 l 779 0 l 517 382 l 768 745 l 547 745 l 407 528 l 268 745 l 41 745 l 293 378 l 32 0 "},"y":{"ha":833,"x_min":28,"x_max":803,"o":"m 28 745 l 319 -3 q 289 -41 306 -31 q 245 -52 273 -52 q 155 -22 203 -52 l 85 -175 q 272 -227 172 -227 q 419 -180 366 -227 q 517 -18 473 -133 l 803 745 l 583 745 l 421 237 l 252 745 l 28 745 "},"z":{"ha":782,"x_min":69,"x_max":717,"o":"m 69 0 l 717 0 l 717 171 l 330 171 l 717 596 l 717 745 l 82 745 l 82 574 l 454 574 l 69 149 l 69 0 "},"{":{"ha":680,"x_min":68,"x_max":615,"o":"m 68 318 l 104 318 q 222 287 187 318 q 257 175 257 255 q 255 126 257 163 q 253 79 253 90 q 268 -18 253 24 q 320 -94 283 -59 q 420 -155 356 -130 q 578 -196 484 -180 l 615 -56 q 527 -25 560 -40 q 475 11 493 -9 q 451 54 457 32 q 446 110 446 75 q 448 160 446 123 q 450 212 450 197 q 414 331 450 286 q 306 399 378 375 q 414 467 378 422 q 450 585 450 511 q 448 637 450 600 q 446 688 446 674 q 451 744 446 722 q 475 786 457 766 q 527 822 493 806 q 615 852 560 837 l 578 993 q 420 951 484 977 q 320 891 356 926 q 268 815 283 857 q 253 718 253 774 q 255 671 253 708 q 257 623 257 635 q 222 511 257 543 q 104 479 187 479 l 68 479 l 68 318 "},"|":{"ha":486,"x_min":160,"x_max":326,"o":"m 160 -178 l 326 -178 l 326 1108 l 160 1108 l 160 -178 "},"}":{"ha":680,"x_min":65,"x_max":612,"o":"m 65 -56 l 103 -196 q 261 -155 197 -180 q 361 -94 325 -130 q 413 -18 397 -59 q 428 79 428 24 q 426 126 428 90 q 424 175 424 163 q 459 287 424 255 q 576 318 494 318 l 612 318 l 612 479 l 576 479 q 459 511 494 479 q 424 623 424 543 q 426 671 424 635 q 428 718 428 708 q 413 815 428 774 q 361 891 397 857 q 261 951 325 926 q 103 993 197 977 l 65 852 q 154 822 120 837 q 205 786 187 806 q 229 744 223 766 q 235 688 235 722 q 233 637 235 674 q 231 585 231 600 q 267 467 231 511 q 375 399 302 422 q 267 331 303 375 q 231 212 231 286 q 233 160 231 197 q 235 110 235 123 q 229 54 235 75 q 205 11 223 32 q 154 -25 187 -9 q 65 -56 120 -40 "},"~":{"ha":708,"x_min":68,"x_max":640,"o":"m 68 346 l 180 311 q 213 363 197 348 q 260 379 230 379 q 314 366 279 379 q 390 338 349 352 q 468 325 431 325 q 575 373 536 325 q 640 517 614 421 l 528 551 q 495 499 511 515 q 449 484 479 484 q 395 497 429 484 q 318 524 360 511 q 240 538 277 538 q 133 490 172 538 q 68 346 94 441 "}," ":{"ha":416,"x_min":0,"x_max":0,"o":""},"¡":{"ha":450,"x_min":102,"x_max":349,"o":"m 102 0 l 349 0 l 349 28 l 283 642 l 167 642 l 102 28 l 102 0 m 113 750 l 338 750 l 338 972 l 113 972 l 113 750 "},"¢":{"ha":806,"x_min":65,"x_max":753,"o":"m 65 492 q 134 268 65 367 q 315 127 203 169 l 289 -8 l 433 -8 l 456 106 q 753 245 631 109 l 633 367 q 484 289 558 298 l 559 672 q 628 621 593 656 l 753 755 q 603 859 686 830 l 627 981 l 482 981 l 463 880 l 454 880 q 254 828 344 880 q 115 686 164 775 q 65 492 65 597 m 269 494 q 315 634 269 576 q 433 699 361 692 l 358 314 q 292 388 315 341 q 269 494 269 435 "},"£":{"ha":894,"x_min":83,"x_max":831,"o":"m 83 0 l 828 0 l 828 184 l 406 184 l 406 371 l 722 371 l 722 547 l 406 547 l 406 654 q 437 752 406 717 q 521 787 468 787 q 597 766 564 787 q 668 696 631 744 l 831 827 q 701 944 775 902 q 518 986 627 986 q 275 900 361 986 q 189 660 189 814 l 189 547 l 83 547 l 83 371 l 189 371 l 189 175 l 83 140 l 83 0 "},"¤":{"ha":1000,"x_min":68,"x_max":947,"o":"m 68 301 l 196 301 q 345 69 238 155 q 607 -17 452 -17 q 801 32 720 -17 q 947 175 881 81 l 794 288 q 704 200 745 227 q 607 174 664 174 q 493 207 541 174 q 419 301 446 239 l 677 301 l 677 441 l 389 441 q 387 488 387 457 q 389 536 387 521 l 677 536 l 677 676 l 422 676 q 599 799 477 799 q 699 772 656 799 q 783 689 741 745 l 945 811 q 861 904 905 867 q 752 965 818 941 q 603 989 686 989 q 348 904 453 989 q 199 676 243 819 l 68 676 l 68 536 l 172 536 q 171 485 171 519 q 172 441 171 455 l 68 441 l 68 301 "},"¥":{"ha":952,"x_min":20,"x_max":933,"o":"m 20 972 l 317 514 l 118 514 l 118 364 l 374 364 l 374 278 l 118 278 l 118 127 l 374 127 l 374 0 l 579 0 l 579 127 l 835 127 l 835 278 l 579 278 l 579 364 l 835 364 l 835 514 l 633 514 l 933 972 l 694 972 l 479 612 l 265 972 l 20 972 "},"§":{"ha":878,"x_min":77,"x_max":802,"o":"m 77 478 q 146 353 77 399 q 385 269 216 307 q 484 243 450 255 q 527 220 517 231 q 538 192 538 209 q 514 154 538 168 q 446 140 491 140 q 241 232 342 140 l 127 118 q 452 -14 248 -14 q 661 44 586 -14 q 736 203 736 102 q 677 330 736 283 q 802 494 802 377 q 731 619 802 573 q 493 703 661 665 q 395 729 428 717 q 351 752 361 741 q 340 781 340 764 q 363 818 340 804 q 432 832 387 832 q 636 741 536 832 l 750 854 q 427 986 629 986 q 217 928 292 986 q 142 770 142 870 q 200 642 142 688 q 77 478 77 595 m 261 509 q 281 554 261 537 q 338 571 302 571 q 476 546 378 571 q 584 509 551 528 q 616 464 616 491 q 596 418 616 435 q 541 401 576 401 q 401 427 500 401 q 294 463 327 445 q 261 509 261 481 "},"¨":{"ha":694,"x_min":97,"x_max":597,"o":"m 97 827 l 300 827 l 300 1014 l 97 1014 l 97 827 m 395 827 l 597 827 l 597 1014 l 395 1014 l 395 827 "},"©":{"ha":1152,"x_min":74,"x_max":1079,"o":"m 74 485 q 140 234 74 349 q 321 51 205 119 q 575 -17 437 -17 q 830 52 713 -17 q 1013 236 946 120 q 1079 488 1079 352 q 1040 682 1079 589 q 935 842 1001 774 q 775 949 868 909 q 578 989 682 989 q 380 948 474 989 q 220 840 287 908 q 113 680 153 772 q 74 485 74 587 m 132 485 q 166 659 132 576 q 259 802 201 742 q 401 898 318 862 q 578 933 484 933 q 753 898 671 933 q 895 804 836 863 q 987 662 953 744 q 1021 488 1021 579 q 986 313 1021 396 q 893 170 952 231 q 752 74 835 110 q 575 39 669 39 q 349 98 451 39 q 190 260 247 158 q 132 485 132 363 m 309 492 q 387 296 309 376 q 582 216 465 216 q 706 240 655 216 q 802 313 757 264 l 724 390 q 658 343 688 358 q 586 328 627 328 q 476 376 519 328 q 433 493 433 424 q 477 610 433 562 q 586 659 520 659 q 721 599 654 659 l 798 688 q 707 749 756 728 q 586 770 658 770 q 387 689 465 770 q 309 492 309 608 "},"ª":{"ha":541,"x_min":68,"x_max":454,"o":"m 68 385 l 454 385 l 454 476 l 68 476 l 68 385 m 72 681 q 112 588 72 621 q 212 554 151 554 q 336 607 290 554 l 336 562 l 449 562 l 449 800 q 267 977 449 977 q 107 943 180 977 l 136 856 q 249 878 196 878 q 315 858 292 878 q 338 803 338 839 l 338 796 q 237 812 288 812 q 117 779 161 812 q 72 681 72 746 m 184 686 q 205 729 184 714 q 264 743 227 743 q 339 728 299 743 l 339 707 q 314 655 339 675 q 248 635 288 635 q 202 648 219 635 q 184 686 184 662 "},"«":{"ha":895,"x_min":57,"x_max":829,"o":"m 57 367 l 290 56 l 452 136 l 271 374 l 452 611 l 290 689 l 57 378 l 57 367 m 435 367 l 668 56 l 829 136 l 648 374 l 829 611 l 668 689 l 435 378 l 435 367 "},"­":{"ha":566,"x_min":69,"x_max":497,"o":"m 69 329 l 497 329 l 497 532 l 69 532 l 69 329 "},"®":{"ha":1152,"x_min":74,"x_max":1079,"o":"m 74 485 q 140 234 74 349 q 321 51 205 119 q 575 -17 437 -17 q 830 52 713 -17 q 1013 236 946 120 q 1079 488 1079 352 q 1040 682 1079 589 q 935 842 1001 774 q 775 949 868 909 q 578 989 682 989 q 380 948 474 989 q 220 840 287 908 q 113 680 153 772 q 74 485 74 587 m 132 485 q 166 659 132 576 q 259 802 201 742 q 401 898 318 862 q 578 933 484 933 q 753 898 671 933 q 895 804 836 863 q 987 662 953 744 q 1021 488 1021 579 q 986 313 1021 396 q 893 170 952 231 q 752 74 835 110 q 575 39 669 39 q 349 98 451 39 q 190 260 247 158 q 132 485 132 363 m 370 233 l 488 233 l 488 406 l 581 406 l 694 233 l 832 233 l 701 425 q 786 487 755 445 q 817 591 817 528 q 760 721 817 674 q 607 768 703 768 l 370 768 l 370 233 m 488 507 l 488 664 l 603 664 q 672 644 648 664 q 697 585 697 623 q 673 528 697 549 q 606 507 650 507 l 488 507 "},"¯":{"ha":694,"x_min":97,"x_max":597,"o":"m 97 833 l 597 833 l 597 979 l 97 979 l 97 833 "},"°":{"ha":667,"x_min":93,"x_max":574,"o":"m 166 582 q 334 511 239 511 q 501 582 429 511 q 574 746 574 652 q 501 910 574 840 q 334 981 429 981 q 166 910 239 981 q 93 746 93 840 q 129 617 93 652 q 166 582 166 582 m 242 838 q 334 876 279 876 q 425 838 388 876 q 461 746 461 799 q 425 654 461 693 q 334 615 388 615 q 242 654 279 615 q 205 746 205 693 q 224 818 205 799 q 242 838 242 838 "},"±":{"ha":852,"x_min":52,"x_max":791,"o":"m 52 149 q 221 26 123 70 q 436 -17 319 -17 q 697 68 603 -17 q 791 288 791 153 q 751 418 791 368 q 637 500 711 468 q 765 726 765 570 q 670 916 765 843 q 418 989 574 989 q 220 944 300 989 q 69 810 140 899 l 216 685 q 312 769 267 741 q 415 798 358 798 q 518 769 480 798 q 555 693 555 740 q 516 610 555 642 q 404 579 476 579 l 292 579 l 292 401 l 399 401 q 534 373 486 401 q 582 290 582 345 q 544 206 582 237 q 439 175 507 175 q 195 288 302 175 l 52 149 "},"´":{"ha":694,"x_min":203,"x_max":542,"o":"m 203 827 l 364 827 l 542 993 l 359 1072 l 203 827 "},"µ":{"ha":1180,"x_min":74,"x_max":1196,"o":"m 98 326 q 169 188 123 250 q 278 80 215 126 q 420 8 340 34 q 589 -17 500 -17 q 736 3 661 -17 l 882 -140 l 1196 -140 l 1196 -126 l 949 123 q 1065 288 1023 193 q 1107 488 1107 382 q 1041 740 1107 625 q 857 922 975 854 q 591 989 739 989 q 423 963 503 989 q 279 891 342 938 q 170 783 216 845 q 99 644 123 720 q 74 485 74 568 q 86 364 74 402 q 98 326 98 326 m 297 488 q 379 704 297 616 q 589 791 461 791 q 741 750 673 791 q 846 638 809 709 q 884 485 884 568 q 801 269 884 357 q 591 180 719 180 q 439 222 507 180 q 334 334 372 264 q 297 488 297 404 "},"¶":{"ha":819,"x_min":49,"x_max":703,"o":"m 49 644 q 79 503 49 565 q 165 400 110 440 q 294 340 220 361 q 456 319 368 319 l 489 319 l 489 0 l 703 0 l 703 972 l 432 972 q 154 885 259 972 q 49 644 49 797 "},"·":{"ha":397,"x_min":86,"x_max":311,"o":"m 86 319 l 311 319 l 311 542 l 86 542 l 86 319 "},"¸":{"ha":694,"x_min":164,"x_max":443,"o":"m 164 -167 l 340 -240 l 443 14 l 288 14 l 164 -167 "},"º":{"ha":541,"x_min":57,"x_max":485,"o":"m 118 614 q 269 553 178 553 q 423 615 361 553 q 485 766 485 677 q 424 918 485 857 q 272 979 363 979 q 119 917 181 979 q 57 765 57 855 q 87 644 57 675 q 118 614 118 614 m 71 385 l 471 385 l 471 476 l 71 476 l 71 385 m 171 766 q 198 846 171 814 q 269 879 224 879 q 342 845 314 879 q 371 765 371 812 q 344 685 371 718 q 272 653 317 653 q 199 686 227 653 q 171 766 171 720 "},"»":{"ha":895,"x_min":66,"x_max":839,"o":"m 66 134 l 228 56 l 461 367 l 461 378 l 228 689 l 66 608 l 248 371 l 66 134 m 444 134 l 606 56 l 839 367 l 839 378 l 606 689 l 444 608 l 625 371 l 444 134 "},"¿":{"ha":755,"x_min":52,"x_max":728,"o":"m 52 277 q 143 64 52 140 q 387 -12 234 -12 q 728 138 591 -12 l 600 278 q 392 182 504 182 q 298 208 332 182 q 264 282 264 235 q 322 373 264 340 q 507 410 380 405 l 514 416 l 482 642 l 340 642 l 325 557 q 218 525 264 545 q 132 472 171 505 q 72 391 93 440 q 52 277 52 341 m 302 750 l 528 750 l 528 972 l 302 972 l 302 750 "},"À":{"ha":1097,"x_min":33,"x_max":1064,"o":"m 33 0 l 252 0 l 340 218 l 751 218 l 840 0 l 1064 0 l 647 979 l 450 979 l 33 0 m 298 1215 l 476 1048 l 637 1048 l 481 1295 l 298 1215 m 416 407 l 546 722 l 675 407 l 416 407 "},"Á":{"ha":1097,"x_min":33,"x_max":1064,"o":"m 33 0 l 252 0 l 340 218 l 751 218 l 840 0 l 1064 0 l 647 979 l 450 979 l 33 0 m 416 407 l 546 722 l 675 407 l 416 407 m 460 1048 l 621 1048 l 799 1215 l 616 1295 l 460 1048 "},"Â":{"ha":1097,"x_min":33,"x_max":1064,"o":"m 33 0 l 252 0 l 340 218 l 751 218 l 840 0 l 1064 0 l 647 979 l 450 979 l 33 0 m 278 1048 l 437 1048 l 547 1140 l 657 1048 l 819 1048 l 648 1267 l 449 1267 l 278 1048 m 416 407 l 546 722 l 675 407 l 416 407 "},"Ã":{"ha":1097,"x_min":33,"x_max":1064,"o":"m 33 0 l 252 0 l 340 218 l 751 218 l 840 0 l 1064 0 l 647 979 l 450 979 l 33 0 m 262 1069 l 375 1035 q 408 1087 391 1072 q 454 1103 425 1103 q 509 1089 474 1103 q 585 1062 543 1076 q 663 1048 626 1048 q 770 1097 731 1048 q 835 1240 808 1145 l 722 1275 q 689 1223 706 1238 q 643 1207 673 1207 q 589 1221 623 1207 q 513 1248 554 1234 q 435 1261 471 1261 q 328 1213 366 1261 q 262 1069 289 1165 m 416 407 l 546 722 l 675 407 l 416 407 "},"Ä":{"ha":1097,"x_min":33,"x_max":1064,"o":"m 33 0 l 252 0 l 340 218 l 751 218 l 840 0 l 1064 0 l 647 979 l 450 979 l 33 0 m 298 1048 l 501 1048 l 501 1236 l 298 1236 l 298 1048 m 416 407 l 546 722 l 675 407 l 416 407 m 596 1048 l 799 1048 l 799 1236 l 596 1236 l 596 1048 "},"Å":{"ha":1097,"x_min":33,"x_max":1064,"o":"m 33 0 l 252 0 l 340 218 l 751 218 l 840 0 l 1064 0 l 659 954 q 717 1076 717 1006 q 666 1191 717 1143 q 549 1239 616 1239 q 431 1191 481 1239 q 380 1076 380 1143 q 439 954 380 1006 l 33 0 m 416 407 l 546 722 l 675 407 l 416 407 m 488 1137 q 549 1162 513 1162 q 610 1137 585 1162 q 635 1076 635 1112 q 610 1015 635 1040 q 549 990 585 990 q 488 1015 513 990 q 463 1076 463 1040 q 475 1125 463 1112 q 488 1137 488 1137 "},"Æ":{"ha":1451,"x_min":12,"x_max":1378,"o":"m 12 0 l 231 0 l 346 218 l 672 218 l 672 0 l 1378 0 l 1378 191 l 885 191 l 885 395 l 1308 395 l 1308 585 l 885 585 l 885 782 l 1371 782 l 1371 972 l 536 972 l 12 0 m 446 407 l 647 787 l 672 787 l 672 407 l 446 407 "},"Ç":{"ha":1025,"x_min":74,"x_max":971,"o":"m 74 485 q 179 171 74 305 q 453 -3 285 36 l 342 -167 l 518 -240 l 608 -16 q 811 33 727 -9 q 971 157 896 76 l 835 294 q 713 208 770 236 q 579 180 656 180 q 377 270 456 180 q 297 488 297 359 q 377 703 297 615 q 579 791 458 791 q 709 764 649 791 q 828 682 768 736 l 964 839 q 800 950 890 911 q 581 989 709 989 q 318 921 435 989 q 138 738 201 853 q 74 485 74 623 "},"È":{"ha":930,"x_min":117,"x_max":857,"o":"m 117 0 l 857 0 l 857 191 l 329 191 l 329 395 l 787 395 l 787 585 l 329 585 l 329 782 l 850 782 l 850 972 l 117 972 l 117 0 m 262 1215 l 440 1048 l 602 1048 l 444 1295 l 262 1215 "},"É":{"ha":930,"x_min":117,"x_max":857,"o":"m 117 0 l 857 0 l 857 191 l 329 191 l 329 395 l 787 395 l 787 585 l 329 585 l 329 782 l 850 782 l 850 972 l 117 972 l 117 0 m 367 1048 l 528 1048 l 705 1215 l 524 1295 l 367 1048 "},"Ê":{"ha":930,"x_min":117,"x_max":857,"o":"m 117 0 l 857 0 l 857 191 l 329 191 l 329 395 l 787 395 l 787 585 l 329 585 l 329 782 l 850 782 l 850 972 l 117 972 l 117 0 m 210 1048 l 370 1048 l 479 1140 l 589 1048 l 751 1048 l 581 1267 l 380 1267 l 210 1048 "},"Ë":{"ha":930,"x_min":117,"x_max":857,"o":"m 117 0 l 857 0 l 857 191 l 329 191 l 329 395 l 787 395 l 787 585 l 329 585 l 329 782 l 850 782 l 850 972 l 117 972 l 117 0 m 231 1048 l 433 1048 l 433 1236 l 231 1236 l 231 1048 m 528 1048 l 730 1048 l 730 1236 l 528 1236 l 528 1048 "},"Ì":{"ha":467,"x_min":-17,"x_max":340,"o":"m -17 1215 l 161 1048 l 322 1048 l 165 1295 l -17 1215 m 126 0 l 340 0 l 340 972 l 126 972 l 126 0 "},"Í":{"ha":467,"x_min":126,"x_max":484,"o":"m 126 0 l 340 0 l 340 972 l 126 972 l 126 0 m 144 1048 l 306 1048 l 484 1215 l 301 1295 l 144 1048 "},"Î":{"ha":467,"x_min":-37,"x_max":504,"o":"m -37 1048 l 122 1048 l 232 1140 l 342 1048 l 504 1048 l 334 1267 l 134 1267 l -37 1048 m 126 0 l 340 0 l 340 972 l 126 972 l 126 0 "},"Ï":{"ha":467,"x_min":-17,"x_max":484,"o":"m -17 1048 l 186 1048 l 186 1236 l -17 1236 l -17 1048 m 126 0 l 340 0 l 340 972 l 126 972 l 126 0 m 281 1048 l 484 1048 l 484 1236 l 281 1236 l 281 1048 "},"Ð":{"ha":1127,"x_min":54,"x_max":1054,"o":"m 54 395 l 158 395 l 158 0 l 538 0 q 747 38 650 0 q 911 140 844 75 q 1016 295 978 205 q 1054 488 1054 385 q 989 735 1054 625 q 806 909 924 845 q 538 972 688 972 l 158 972 l 158 583 l 54 583 l 54 395 m 370 193 l 370 395 l 581 395 l 581 583 l 370 583 l 370 779 l 538 779 q 750 697 669 779 q 831 485 831 616 q 750 274 831 355 q 538 193 669 193 l 370 193 "},"Ñ":{"ha":1097,"x_min":117,"x_max":981,"o":"m 117 0 l 328 0 l 328 618 l 799 0 l 981 0 l 981 972 l 770 972 l 770 374 l 314 972 l 117 972 l 117 0 m 262 1069 l 375 1035 q 408 1087 391 1072 q 454 1103 425 1103 q 509 1089 474 1103 q 585 1062 543 1076 q 663 1048 626 1048 q 770 1097 731 1048 q 835 1240 808 1145 l 722 1275 q 689 1223 706 1238 q 643 1207 673 1207 q 589 1221 623 1207 q 513 1248 554 1234 q 435 1261 471 1261 q 328 1213 366 1261 q 262 1069 289 1165 "},"Ò":{"ha":1180,"x_min":74,"x_max":1107,"o":"m 74 484 q 113 289 74 381 q 218 129 151 197 q 382 22 286 62 q 589 -17 479 -17 q 795 23 699 -17 q 960 131 892 63 q 1067 291 1028 199 q 1107 486 1107 384 l 1107 489 q 1041 740 1107 626 q 857 922 975 854 q 591 989 738 989 q 385 949 481 989 q 220 842 288 909 q 113 681 152 774 q 74 486 74 589 l 74 484 m 297 486 l 297 489 q 334 641 297 572 q 437 751 370 710 q 589 791 505 791 q 800 702 716 791 q 884 486 884 613 l 884 484 q 847 332 884 401 q 743 221 810 262 q 591 180 675 180 q 439 222 507 180 q 334 334 372 264 q 297 486 297 404 m 326 1215 l 504 1048 l 665 1048 l 509 1295 l 326 1215 "},"Ó":{"ha":1180,"x_min":74,"x_max":1107,"o":"m 74 484 q 113 289 74 381 q 218 129 151 197 q 382 22 286 62 q 589 -17 479 -17 q 795 23 699 -17 q 960 131 892 63 q 1067 291 1028 199 q 1107 486 1107 384 l 1107 489 q 1041 740 1107 626 q 857 922 975 854 q 591 989 738 989 q 385 949 481 989 q 220 842 288 909 q 113 681 152 774 q 74 486 74 589 l 74 484 m 297 486 l 297 489 q 334 641 297 572 q 437 751 370 710 q 589 791 505 791 q 800 702 716 791 q 884 486 884 613 l 884 484 q 847 332 884 401 q 743 221 810 262 q 591 180 675 180 q 439 222 507 180 q 334 334 372 264 q 297 486 297 404 m 515 1048 l 676 1048 l 854 1215 l 672 1295 l 515 1048 "},"Ô":{"ha":1180,"x_min":74,"x_max":1107,"o":"m 74 484 q 113 289 74 381 q 218 129 151 197 q 382 22 286 62 q 589 -17 479 -17 q 795 23 699 -17 q 960 131 892 63 q 1067 291 1028 199 q 1107 486 1107 384 l 1107 489 q 1041 740 1107 626 q 857 922 975 854 q 591 989 738 989 q 385 949 481 989 q 220 842 288 909 q 113 681 152 774 q 74 486 74 589 l 74 484 m 297 486 l 297 489 q 334 641 297 572 q 437 751 370 710 q 589 791 505 791 q 800 702 716 791 q 884 486 884 613 l 884 484 q 847 332 884 401 q 743 221 810 262 q 591 180 675 180 q 439 222 507 180 q 334 334 372 264 q 297 486 297 404 m 319 1048 l 479 1048 l 589 1140 l 699 1048 l 861 1048 l 690 1267 l 490 1267 l 319 1048 "},"Õ":{"ha":1180,"x_min":74,"x_max":1107,"o":"m 74 484 q 113 289 74 381 q 218 129 151 197 q 382 22 286 62 q 589 -17 479 -17 q 795 23 699 -17 q 960 131 892 63 q 1067 291 1028 199 q 1107 486 1107 384 l 1107 489 q 1041 740 1107 626 q 857 922 975 854 q 591 989 738 989 q 385 949 481 989 q 220 842 288 909 q 113 681 152 774 q 74 486 74 589 l 74 484 m 297 486 l 297 489 q 334 641 297 572 q 437 751 370 710 q 589 791 505 791 q 800 702 716 791 q 884 486 884 613 l 884 484 q 847 332 884 401 q 743 221 810 262 q 591 180 675 180 q 439 222 507 180 q 334 334 372 264 q 297 486 297 404 m 304 1069 l 416 1035 q 449 1087 433 1072 q 496 1103 466 1103 q 550 1089 515 1103 q 626 1062 585 1076 q 704 1048 667 1048 q 811 1097 772 1048 q 876 1240 850 1145 l 764 1275 q 731 1223 747 1238 q 685 1207 715 1207 q 631 1221 665 1207 q 554 1248 596 1234 q 476 1261 513 1261 q 369 1213 408 1261 q 304 1069 331 1165 "},"Ö":{"ha":1180,"x_min":74,"x_max":1107,"o":"m 74 484 q 113 289 74 381 q 218 129 151 197 q 382 22 286 62 q 589 -17 479 -17 q 795 23 699 -17 q 960 131 892 63 q 1067 291 1028 199 q 1107 486 1107 384 l 1107 489 q 1041 740 1107 626 q 857 922 975 854 q 591 989 738 989 q 385 949 481 989 q 220 842 288 909 q 113 681 152 774 q 74 486 74 589 l 74 484 m 297 486 l 297 489 q 334 641 297 572 q 437 751 370 710 q 589 791 505 791 q 800 702 716 791 q 884 486 884 613 l 884 484 q 847 332 884 401 q 743 221 810 262 q 591 180 675 180 q 439 222 507 180 q 334 334 372 264 q 297 486 297 404 m 340 1048 l 543 1048 l 543 1236 l 340 1236 l 340 1048 m 637 1048 l 840 1048 l 840 1236 l 637 1236 l 637 1048 "},"Ø":{"ha":1180,"x_min":62,"x_max":1118,"o":"m 62 -7 l 267 -7 l 321 53 q 589 -17 440 -17 q 795 23 699 -17 q 960 131 892 63 q 1067 292 1028 199 q 1107 488 1107 385 q 1075 669 1107 583 q 982 821 1042 754 l 1118 979 l 914 979 l 860 920 q 591 989 741 989 q 423 963 503 989 q 279 891 342 938 q 170 783 216 845 q 99 644 123 720 q 74 485 74 568 q 106 303 74 389 q 199 151 139 218 l 62 -7 m 293 488 q 377 705 293 614 q 589 796 460 796 q 726 762 662 796 l 342 317 q 293 488 293 393 m 454 210 l 839 656 q 888 485 888 579 q 804 267 888 358 q 591 176 720 176 q 454 210 517 176 "},"Ù":{"ha":1050,"x_min":102,"x_max":949,"o":"m 102 416 q 212 95 102 205 q 522 -16 323 -16 q 836 96 723 -16 q 949 424 949 208 l 949 972 l 734 972 l 734 415 q 680 241 734 301 q 525 182 625 182 q 370 243 425 182 q 315 422 315 305 l 315 972 l 102 972 l 102 416 m 282 1208 l 460 1042 l 621 1042 l 464 1287 l 282 1208 "},"Ú":{"ha":1050,"x_min":102,"x_max":949,"o":"m 102 416 q 212 95 102 205 q 522 -16 323 -16 q 836 96 723 -16 q 949 424 949 208 l 949 972 l 734 972 l 734 415 q 680 241 734 301 q 525 182 625 182 q 370 243 425 182 q 315 422 315 305 l 315 972 l 102 972 l 102 416 m 429 1042 l 590 1042 l 768 1208 l 586 1287 l 429 1042 "},"Û":{"ha":1050,"x_min":102,"x_max":949,"o":"m 102 416 q 212 95 102 205 q 522 -16 323 -16 q 836 96 723 -16 q 949 424 949 208 l 949 972 l 734 972 l 734 415 q 680 241 734 301 q 525 182 625 182 q 370 243 425 182 q 315 422 315 305 l 315 972 l 102 972 l 102 416 m 254 1048 l 414 1048 l 524 1140 l 633 1048 l 796 1048 l 625 1267 l 425 1267 l 254 1048 "},"Ü":{"ha":1050,"x_min":102,"x_max":949,"o":"m 102 416 q 212 95 102 205 q 522 -16 323 -16 q 836 96 723 -16 q 949 424 949 208 l 949 972 l 734 972 l 734 415 q 680 241 734 301 q 525 182 625 182 q 370 243 425 182 q 315 422 315 305 l 315 972 l 102 972 l 102 416 m 275 1048 l 478 1048 l 478 1236 l 275 1236 l 275 1048 m 572 1048 l 775 1048 l 775 1236 l 572 1236 l 572 1048 "},"Ý":{"ha":994,"x_min":17,"x_max":978,"o":"m 17 972 l 390 383 l 390 0 l 604 0 l 604 387 l 978 972 l 734 972 l 498 582 l 267 972 l 17 972 m 415 1042 l 576 1042 l 754 1208 l 572 1287 l 415 1042 "},"Þ":{"ha":935,"x_min":117,"x_max":886,"o":"m 117 0 l 330 0 l 330 150 l 493 150 q 647 172 576 150 q 771 236 718 194 q 856 344 825 278 q 886 493 886 410 q 786 738 886 646 q 514 831 686 831 l 330 831 l 330 972 l 117 972 l 117 0 m 330 340 l 330 637 l 496 637 q 623 599 577 637 q 669 489 669 561 q 624 382 669 423 q 500 340 578 340 l 330 340 "},"ß":{"ha":861,"x_min":94,"x_max":802,"o":"m 94 0 l 304 0 l 304 707 q 338 808 304 770 q 427 846 372 846 q 508 815 477 846 q 538 733 538 785 q 505 637 538 679 q 415 559 473 595 l 415 421 q 544 376 496 410 q 593 285 593 341 q 547 192 593 225 q 415 155 501 159 l 415 -3 q 697 65 593 -10 q 802 278 802 140 q 619 525 802 446 q 668 564 648 545 q 708 611 689 584 q 736 674 727 638 q 746 753 746 709 q 664 947 746 871 q 436 1023 581 1023 q 186 937 279 1023 q 94 699 94 851 l 94 0 "},"à":{"ha":822,"x_min":50,"x_max":734,"o":"m 50 214 q 123 47 50 107 q 306 -14 196 -14 q 530 81 445 -14 l 530 0 l 734 0 l 734 432 q 653 670 734 587 q 403 753 572 753 q 248 738 315 753 q 114 693 182 723 l 167 532 q 372 572 277 572 q 491 537 451 572 q 532 436 532 503 l 532 424 q 350 454 444 454 q 131 394 212 454 q 50 216 50 334 l 50 214 m 175 993 l 353 827 l 514 827 l 357 1072 l 175 993 m 254 222 l 254 225 q 293 301 254 275 q 400 328 332 328 q 534 300 475 328 l 534 262 q 489 169 534 205 q 370 132 443 132 q 286 156 318 132 q 254 222 254 180 "},"á":{"ha":822,"x_min":50,"x_max":734,"o":"m 50 214 q 123 47 50 107 q 306 -14 196 -14 q 530 81 445 -14 l 530 0 l 734 0 l 734 432 q 653 670 734 587 q 403 753 572 753 q 248 738 315 753 q 114 693 182 723 l 167 532 q 372 572 277 572 q 491 537 451 572 q 532 436 532 503 l 532 424 q 350 454 444 454 q 131 394 212 454 q 50 216 50 334 l 50 214 m 254 222 l 254 225 q 293 301 254 275 q 400 328 332 328 q 534 300 475 328 l 534 262 q 489 169 534 205 q 370 132 443 132 q 286 156 318 132 q 254 222 254 180 m 315 827 l 476 827 l 654 993 l 472 1072 l 315 827 "},"â":{"ha":822,"x_min":50,"x_max":734,"o":"m 50 214 q 123 47 50 107 q 306 -14 196 -14 q 530 81 445 -14 l 530 0 l 734 0 l 734 432 q 653 670 734 587 q 403 753 572 753 q 248 738 315 753 q 114 693 182 723 l 167 532 q 372 572 277 572 q 491 537 451 572 q 532 436 532 503 l 532 424 q 350 454 444 454 q 131 394 212 454 q 50 216 50 334 l 50 214 m 138 827 l 297 827 l 407 918 l 517 827 l 679 827 l 509 1044 l 309 1044 l 138 827 m 254 222 l 254 225 q 293 301 254 275 q 400 328 332 328 q 534 300 475 328 l 534 262 q 489 169 534 205 q 370 132 443 132 q 286 156 318 132 q 254 222 254 180 "},"ã":{"ha":822,"x_min":50,"x_max":734,"o":"m 50 214 q 123 47 50 107 q 306 -14 196 -14 q 530 81 445 -14 l 530 0 l 734 0 l 734 432 q 653 670 734 587 q 403 753 572 753 q 248 738 315 753 q 114 693 182 723 l 167 532 q 372 572 277 572 q 491 537 451 572 q 532 436 532 503 l 532 424 q 350 454 444 454 q 131 394 212 454 q 50 216 50 334 l 50 214 m 125 847 l 237 812 q 270 865 254 849 q 317 880 287 880 q 371 867 336 880 q 447 840 406 853 q 525 827 488 827 q 632 874 593 827 q 697 1018 671 922 l 585 1053 q 552 1000 568 1016 q 505 985 535 985 q 451 998 486 985 q 375 1025 416 1012 q 297 1039 334 1039 q 190 991 229 1039 q 125 847 151 943 m 254 222 l 254 225 q 293 301 254 275 q 400 328 332 328 q 534 300 475 328 l 534 262 q 489 169 534 205 q 370 132 443 132 q 286 156 318 132 q 254 222 254 180 "},"ä":{"ha":822,"x_min":50,"x_max":734,"o":"m 50 214 q 123 47 50 107 q 306 -14 196 -14 q 530 81 445 -14 l 530 0 l 734 0 l 734 432 q 653 670 734 587 q 403 753 572 753 q 248 738 315 753 q 114 693 182 723 l 167 532 q 372 572 277 572 q 491 537 451 572 q 532 436 532 503 l 532 424 q 350 454 444 454 q 131 394 212 454 q 50 216 50 334 l 50 214 m 158 827 l 361 827 l 361 1014 l 158 1014 l 158 827 m 254 222 l 254 225 q 293 301 254 275 q 400 328 332 328 q 534 300 475 328 l 534 262 q 489 169 534 205 q 370 132 443 132 q 286 156 318 132 q 254 222 254 180 m 456 827 l 659 827 l 659 1014 l 456 1014 l 456 827 "},"å":{"ha":822,"x_min":50,"x_max":734,"o":"m 50 214 q 123 47 50 107 q 306 -14 196 -14 q 530 81 445 -14 l 530 0 l 734 0 l 734 432 q 653 670 734 587 q 403 753 572 753 q 248 738 315 753 q 114 693 182 723 l 167 532 q 372 572 277 572 q 491 537 451 572 q 532 436 532 503 l 532 424 q 350 454 444 454 q 131 394 212 454 q 50 216 50 334 l 50 214 m 291 871 q 408 823 341 823 q 526 871 475 823 q 576 986 576 920 q 526 1101 576 1053 q 408 1149 475 1149 q 291 1101 341 1149 q 240 986 240 1053 q 265 896 240 920 q 291 871 291 871 m 254 222 l 254 225 q 293 301 254 275 q 400 328 332 328 q 534 300 475 328 l 534 262 q 489 169 534 205 q 370 132 443 132 q 286 156 318 132 q 254 222 254 180 m 348 1047 q 408 1072 373 1072 q 469 1047 444 1072 q 494 986 494 1021 q 469 925 494 951 q 408 900 444 900 q 348 925 373 900 q 322 986 322 951 q 335 1034 322 1021 q 348 1047 348 1047 "},"æ":{"ha":1320,"x_min":50,"x_max":1258,"o":"m 50 218 q 127 48 50 110 q 330 -14 204 -14 q 633 96 485 -14 q 759 13 686 42 q 917 -17 832 -17 q 1221 122 1109 -17 l 1100 229 q 1014 171 1056 189 q 920 153 972 153 q 801 190 848 153 q 737 298 754 227 l 1255 298 q 1258 353 1258 338 q 1236 506 1258 434 q 1171 635 1214 578 q 1059 725 1128 692 q 901 758 989 758 q 656 659 753 758 q 403 753 578 753 q 248 738 315 753 q 114 693 182 723 l 167 532 q 372 572 277 572 q 491 537 451 572 q 532 436 532 503 l 532 424 q 350 454 444 454 q 131 395 212 454 q 50 218 50 336 m 254 227 q 293 302 254 277 q 400 328 331 328 q 533 301 472 328 q 559 205 538 256 q 370 135 469 135 q 286 159 317 135 q 254 227 254 184 m 734 431 q 789 546 747 504 q 896 589 831 589 q 1002 546 961 589 q 1053 431 1043 503 l 734 431 "},"ç":{"ha":793,"x_min":58,"x_max":750,"o":"m 58 370 q 132 138 58 239 q 328 0 206 37 l 214 -167 l 390 -240 l 481 -16 q 632 24 570 -10 q 750 119 694 58 l 627 244 q 545 185 585 205 q 456 165 506 165 q 319 225 371 165 q 267 372 267 284 q 318 517 267 457 q 447 576 369 576 q 538 556 500 576 q 616 494 577 536 l 746 633 q 621 727 691 695 q 449 758 550 758 q 248 706 338 758 q 108 565 157 653 q 58 370 58 476 "},"è":{"ha":851,"x_min":58,"x_max":789,"o":"m 58 368 q 168 91 58 199 q 447 -17 278 -17 q 751 122 640 -17 l 631 229 q 545 171 587 189 q 450 153 503 153 q 331 190 379 153 q 268 298 283 227 l 786 298 q 789 351 789 338 l 789 354 q 767 506 789 435 q 702 635 745 578 q 588 725 659 692 q 427 758 517 758 q 236 706 321 758 q 105 565 151 653 q 58 371 58 477 l 58 368 m 170 993 l 347 827 l 509 827 l 351 1072 l 170 993 m 265 431 q 320 546 278 504 q 427 589 362 589 q 533 546 492 589 q 583 431 574 503 l 265 431 "},"é":{"ha":851,"x_min":58,"x_max":789,"o":"m 58 368 q 168 91 58 199 q 447 -17 278 -17 q 751 122 640 -17 l 631 229 q 545 171 587 189 q 450 153 503 153 q 331 190 379 153 q 268 298 283 227 l 786 298 q 789 351 789 338 l 789 354 q 767 506 789 435 q 702 635 745 578 q 588 725 659 692 q 427 758 517 758 q 236 706 321 758 q 105 565 151 653 q 58 371 58 477 l 58 368 m 265 431 q 320 546 278 504 q 427 589 362 589 q 533 546 492 589 q 583 431 574 503 l 265 431 m 342 827 l 503 827 l 681 993 l 498 1072 l 342 827 "},"ê":{"ha":851,"x_min":58,"x_max":789,"o":"m 58 368 q 168 91 58 199 q 447 -17 278 -17 q 751 122 640 -17 l 631 229 q 545 171 587 189 q 450 153 503 153 q 331 190 379 153 q 268 298 283 227 l 786 298 q 789 351 789 338 l 789 354 q 767 506 789 435 q 702 635 745 578 q 588 725 659 692 q 427 758 517 758 q 236 706 321 758 q 105 565 151 653 q 58 371 58 477 l 58 368 m 154 827 l 314 827 l 424 918 l 533 827 l 696 827 l 525 1044 l 325 1044 l 154 827 m 265 431 q 320 546 278 504 q 427 589 362 589 q 533 546 492 589 q 583 431 574 503 l 265 431 "},"ë":{"ha":851,"x_min":58,"x_max":789,"o":"m 58 368 q 168 91 58 199 q 447 -17 278 -17 q 751 122 640 -17 l 631 229 q 545 171 587 189 q 450 153 503 153 q 331 190 379 153 q 268 298 283 227 l 786 298 q 789 351 789 338 l 789 354 q 767 506 789 435 q 702 635 745 578 q 588 725 659 692 q 427 758 517 758 q 236 706 321 758 q 105 565 151 653 q 58 371 58 477 l 58 368 m 175 827 l 378 827 l 378 1014 l 175 1014 l 175 827 m 265 431 q 320 546 278 504 q 427 589 362 589 q 533 546 492 589 q 583 431 574 503 l 265 431 m 472 827 l 675 827 l 675 1014 l 472 1014 l 472 827 "},"ì":{"ha":419,"x_min":-37,"x_max":315,"o":"m -37 993 l 140 827 l 301 827 l 144 1072 l -37 993 m 104 0 l 315 0 l 315 745 l 104 745 l 104 0 "},"í":{"ha":419,"x_min":104,"x_max":457,"o":"m 104 0 l 315 0 l 315 745 l 104 745 l 104 0 m 118 827 l 279 827 l 457 993 l 275 1072 l 118 827 "},"î":{"ha":419,"x_min":-61,"x_max":481,"o":"m -61 827 l 98 827 l 208 918 l 318 827 l 481 827 l 310 1044 l 110 1044 l -61 827 m 104 0 l 315 0 l 315 745 l 104 745 l 104 0 "},"ï":{"ha":419,"x_min":-40,"x_max":460,"o":"m -40 827 l 163 827 l 163 1014 l -40 1014 l -40 827 m 104 0 l 315 0 l 315 745 l 104 745 l 104 0 m 257 827 l 460 827 l 460 1014 l 257 1014 l 257 827 "},"ð":{"ha":900,"x_min":58,"x_max":839,"o":"m 58 349 q 87 206 58 273 q 167 89 117 138 q 289 12 218 40 q 443 -17 361 -17 q 610 14 534 -17 q 735 97 686 44 q 812 218 785 149 q 839 366 839 288 q 811 533 839 455 q 717 704 783 611 l 604 864 l 746 921 l 669 1025 l 530 968 l 498 1014 l 261 1014 l 350 895 l 191 831 l 268 726 l 427 791 l 547 631 q 376 675 465 675 q 148 584 237 675 q 58 349 58 493 m 264 345 q 315 474 264 423 q 449 525 366 525 q 583 473 532 525 q 633 345 633 421 q 584 213 633 265 q 450 161 534 161 q 316 214 368 161 q 264 345 264 267 "},"ñ":{"ha":865,"x_min":94,"x_max":777,"o":"m 94 0 l 306 0 l 306 415 q 341 528 306 489 q 437 567 376 567 q 532 528 498 567 q 566 415 566 489 l 566 0 l 777 0 l 777 482 q 710 685 777 611 q 524 758 643 758 q 400 726 450 758 q 306 639 349 694 l 306 745 l 94 745 l 94 0 m 153 847 l 265 812 q 298 865 281 849 q 345 880 315 880 q 399 867 364 880 q 475 840 433 853 q 553 827 516 827 q 660 874 621 827 q 725 1018 699 922 l 612 1053 q 579 1000 596 1016 q 533 985 563 985 q 479 998 513 985 q 403 1025 444 1012 q 325 1039 361 1039 q 218 991 256 1039 q 153 847 179 943 "},"ò":{"ha":922,"x_min":58,"x_max":864,"o":"m 58 368 q 110 174 58 262 q 254 35 162 86 q 460 -17 347 -17 q 667 35 574 -17 q 812 176 760 87 q 864 371 864 265 l 864 374 q 812 568 864 479 q 668 707 760 656 q 463 758 576 758 q 302 728 377 758 q 173 645 227 697 q 89 522 120 593 q 58 371 58 450 l 58 368 m 203 993 l 380 827 l 542 827 l 385 1072 l 203 993 m 267 371 l 267 374 q 319 518 267 459 q 460 576 372 576 q 601 516 545 576 q 656 371 656 456 l 656 368 q 603 224 656 283 q 463 165 550 165 q 322 226 377 165 q 267 371 267 286 "},"ó":{"ha":922,"x_min":58,"x_max":864,"o":"m 58 368 q 110 174 58 262 q 254 35 162 86 q 460 -17 347 -17 q 667 35 574 -17 q 812 176 760 87 q 864 371 864 265 l 864 374 q 812 568 864 479 q 668 707 760 656 q 463 758 576 758 q 302 728 377 758 q 173 645 227 697 q 89 522 120 593 q 58 371 58 450 l 58 368 m 267 371 l 267 374 q 319 518 267 459 q 460 576 372 576 q 601 516 545 576 q 656 371 656 456 l 656 368 q 603 224 656 283 q 463 165 550 165 q 322 226 377 165 q 267 371 267 286 m 380 827 l 542 827 l 720 993 l 538 1072 l 380 827 "},"ô":{"ha":922,"x_min":58,"x_max":864,"o":"m 58 368 q 110 174 58 262 q 254 35 162 86 q 460 -17 347 -17 q 667 35 574 -17 q 812 176 760 87 q 864 371 864 265 l 864 374 q 812 568 864 479 q 668 707 760 656 q 463 758 576 758 q 302 728 377 758 q 173 645 227 697 q 89 522 120 593 q 58 371 58 450 l 58 368 m 191 827 l 350 827 l 460 918 l 570 827 l 732 827 l 561 1044 l 361 1044 l 191 827 m 267 371 l 267 374 q 319 518 267 459 q 460 576 372 576 q 601 516 545 576 q 656 371 656 456 l 656 368 q 603 224 656 283 q 463 165 550 165 q 322 226 377 165 q 267 371 267 286 "},"õ":{"ha":922,"x_min":58,"x_max":864,"o":"m 58 368 q 110 174 58 262 q 254 35 162 86 q 460 -17 347 -17 q 667 35 574 -17 q 812 176 760 87 q 864 371 864 265 l 864 374 q 812 568 864 479 q 668 707 760 656 q 463 758 576 758 q 302 728 377 758 q 173 645 227 697 q 89 522 120 593 q 58 371 58 450 l 58 368 m 175 847 l 288 812 q 320 865 304 849 q 367 880 337 880 q 421 867 387 880 q 497 840 456 853 q 575 827 538 827 q 683 874 644 827 q 747 1018 722 922 l 635 1053 q 602 1000 618 1016 q 555 985 585 985 q 501 998 536 985 q 425 1025 467 1012 q 347 1039 384 1039 q 240 991 279 1039 q 175 847 201 943 m 267 371 l 267 374 q 319 518 267 459 q 460 576 372 576 q 601 516 545 576 q 656 371 656 456 l 656 368 q 603 224 656 283 q 463 165 550 165 q 322 226 377 165 q 267 371 267 286 "},"ö":{"ha":922,"x_min":58,"x_max":864,"o":"m 58 368 q 110 174 58 262 q 254 35 162 86 q 460 -17 347 -17 q 667 35 574 -17 q 812 176 760 87 q 864 371 864 265 l 864 374 q 812 568 864 479 q 668 707 760 656 q 463 758 576 758 q 302 728 377 758 q 173 645 227 697 q 89 522 120 593 q 58 371 58 450 l 58 368 m 211 827 l 414 827 l 414 1014 l 211 1014 l 211 827 m 267 371 l 267 374 q 319 518 267 459 q 460 576 372 576 q 601 516 545 576 q 656 371 656 456 l 656 368 q 603 224 656 283 q 463 165 550 165 q 322 226 377 165 q 267 371 267 286 m 509 827 l 711 827 l 711 1014 l 509 1014 l 509 827 "},"ø":{"ha":922,"x_min":37,"x_max":885,"o":"m 37 -7 l 222 -7 l 260 32 q 460 -17 353 -17 q 667 35 574 -17 q 812 177 760 87 q 864 372 864 266 q 772 623 864 516 l 885 751 l 700 751 l 661 710 q 463 758 571 758 q 256 706 349 758 q 111 565 163 654 q 58 370 58 476 q 149 121 58 226 l 37 -7 m 261 372 q 316 522 261 461 q 460 582 371 582 q 539 566 504 582 l 283 273 q 261 372 261 321 m 385 175 l 639 468 q 661 370 661 420 q 606 220 661 281 q 463 160 551 160 q 385 175 422 160 "},"ù":{"ha":865,"x_min":89,"x_max":771,"o":"m 89 262 q 156 60 89 134 q 342 -14 222 -14 q 466 18 415 -14 q 559 106 516 50 l 559 0 l 771 0 l 771 745 l 559 745 l 559 329 q 525 217 559 256 q 428 178 490 178 q 333 216 367 178 q 300 329 300 255 l 300 745 l 89 745 l 89 262 m 196 993 l 374 827 l 534 827 l 378 1072 l 196 993 "},"ú":{"ha":865,"x_min":89,"x_max":771,"o":"m 89 262 q 156 60 89 134 q 342 -14 222 -14 q 466 18 415 -14 q 559 106 516 50 l 559 0 l 771 0 l 771 745 l 559 745 l 559 329 q 525 217 559 256 q 428 178 490 178 q 333 216 367 178 q 300 329 300 255 l 300 745 l 89 745 l 89 262 m 329 827 l 490 827 l 668 993 l 486 1072 l 329 827 "},"û":{"ha":865,"x_min":89,"x_max":771,"o":"m 89 262 q 156 60 89 134 q 342 -14 222 -14 q 466 18 415 -14 q 559 106 516 50 l 559 0 l 771 0 l 771 745 l 559 745 l 559 329 q 525 217 559 256 q 428 178 490 178 q 333 216 367 178 q 300 329 300 255 l 300 745 l 89 745 l 89 262 m 161 827 l 321 827 l 431 918 l 541 827 l 703 827 l 532 1044 l 332 1044 l 161 827 "},"ü":{"ha":865,"x_min":89,"x_max":771,"o":"m 89 262 q 156 60 89 134 q 342 -14 222 -14 q 466 18 415 -14 q 559 106 516 50 l 559 0 l 771 0 l 771 745 l 559 745 l 559 329 q 525 217 559 256 q 428 178 490 178 q 333 216 367 178 q 300 329 300 255 l 300 745 l 89 745 l 89 262 m 182 827 l 385 827 l 385 1014 l 182 1014 l 182 827 m 479 827 l 682 827 l 682 1014 l 479 1014 l 479 827 "},"ý":{"ha":833,"x_min":28,"x_max":803,"o":"m 28 745 l 319 -3 q 289 -41 306 -31 q 245 -52 273 -52 q 155 -22 203 -52 l 85 -175 q 272 -227 172 -227 q 419 -180 366 -227 q 517 -18 473 -133 l 803 745 l 583 745 l 421 237 l 252 745 l 28 745 m 318 827 l 479 827 l 657 993 l 475 1072 l 318 827 "},"þ":{"ha":937,"x_min":94,"x_max":876,"o":"m 94 -222 l 306 -222 l 306 97 q 538 -14 399 -14 q 641 2 591 -14 q 733 51 690 18 q 808 128 776 83 q 858 236 840 174 q 876 372 876 299 q 848 538 876 463 q 772 660 819 612 q 664 732 724 707 q 538 758 604 758 q 306 637 396 758 l 306 1014 l 94 1014 l 94 -222 m 355 522 q 484 579 408 579 q 612 522 559 579 q 665 372 665 465 q 612 223 665 280 q 484 165 559 165 q 355 223 408 165 q 302 372 302 280 q 329 493 302 465 q 355 522 355 522 "},"ÿ":{"ha":833,"x_min":28,"x_max":803,"o":"m 28 745 l 319 -3 q 289 -41 306 -31 q 245 -52 273 -52 q 155 -22 203 -52 l 85 -175 q 272 -227 172 -227 q 419 -180 366 -227 q 517 -18 473 -133 l 803 745 l 583 745 l 421 237 l 252 745 l 28 745 m 167 827 l 370 827 l 370 1014 l 167 1014 l 167 827 m 464 827 l 667 827 l 667 1014 l 464 1014 l 464 827 "},"Œ":{"ha":1493,"x_min":74,"x_max":1419,"o":"m 74 485 q 139 238 74 348 q 322 64 203 127 q 590 0 440 0 l 1419 0 l 1419 191 l 926 191 l 926 395 l 1350 395 l 1350 585 l 926 585 l 926 782 l 1413 782 l 1413 972 l 590 972 q 381 935 477 972 q 217 832 284 897 q 112 677 150 767 q 74 485 74 587 m 297 488 q 378 699 297 618 q 590 779 459 779 l 714 779 l 714 193 l 590 193 q 378 275 459 193 q 297 488 297 357 "},"œ":{"ha":1434,"x_min":58,"x_max":1372,"o":"m 58 370 q 90 219 58 290 q 173 96 121 147 q 297 14 225 44 q 447 -17 369 -17 q 611 18 535 -17 q 739 115 688 54 q 864 18 789 52 q 1031 -17 939 -17 q 1335 122 1223 -17 l 1214 229 q 1128 171 1170 189 q 1034 153 1086 153 q 915 190 962 153 q 851 298 868 227 l 1369 298 q 1372 353 1372 338 q 1350 506 1372 434 q 1285 635 1328 578 q 1173 725 1242 692 q 1015 758 1103 758 q 860 724 930 758 q 743 628 790 689 q 617 724 691 690 q 456 758 544 758 q 256 706 347 758 q 111 565 164 654 q 58 370 58 475 m 317 517 q 453 576 368 576 q 589 516 536 576 q 642 370 642 456 q 591 224 642 283 q 456 165 541 165 q 320 226 373 165 q 267 372 267 286 q 292 488 267 458 q 317 517 317 517 m 848 431 q 903 546 861 504 q 1010 589 945 589 q 1116 546 1075 589 q 1166 431 1157 503 l 848 431 "},"Ÿ":{"ha":994,"x_min":17,"x_max":978,"o":"m 17 972 l 390 383 l 390 0 l 604 0 l 604 387 l 978 972 l 734 972 l 498 582 l 267 972 l 17 972 m 248 1048 l 450 1048 l 450 1236 l 248 1236 l 248 1048 m 545 1048 l 747 1048 l 747 1236 l 545 1236 l 545 1048 "},"ˆ":{"ha":694,"x_min":77,"x_max":618,"o":"m 77 827 l 236 827 l 346 918 l 456 827 l 618 827 l 447 1044 l 248 1044 l 77 827 "},"˜":{"ha":694,"x_min":61,"x_max":633,"o":"m 61 847 l 174 812 q 207 865 190 849 q 253 880 223 880 q 307 867 273 880 q 383 840 342 853 q 461 827 425 827 q 569 874 530 827 q 633 1018 608 922 l 521 1053 q 488 1000 505 1016 q 441 985 471 985 q 387 998 422 985 q 311 1025 353 1012 q 233 1039 270 1039 q 126 991 165 1039 q 61 847 87 943 "}," ":{"ha":647,"x_min":0,"x_max":0,"o":""}," ":{"ha":1295,"x_min":0,"x_max":0,"o":""}," ":{"ha":647,"x_min":0,"x_max":0,"o":""}," ":{"ha":1295,"x_min":0,"x_max":0,"o":""}," ":{"ha":431,"x_min":0,"x_max":0,"o":""}," ":{"ha":323,"x_min":0,"x_max":0,"o":""}," ":{"ha":216,"x_min":0,"x_max":0,"o":""}," ":{"ha":216,"x_min":0,"x_max":0,"o":""}," ":{"ha":161,"x_min":0,"x_max":0,"o":""}," ":{"ha":258,"x_min":0,"x_max":0,"o":""}," ":{"ha":72,"x_min":0,"x_max":0,"o":""},"‐":{"ha":566,"x_min":69,"x_max":497,"o":"m 69 329 l 497 329 l 497 532 l 69 532 l 69 329 "},"‑":{"ha":566,"x_min":69,"x_max":497,"o":"m 69 329 l 497 329 l 497 532 l 69 532 l 69 329 "},"‒":{"ha":566,"x_min":69,"x_max":497,"o":"m 69 329 l 497 329 l 497 532 l 69 532 l 69 329 "},"–":{"ha":733,"x_min":69,"x_max":664,"o":"m 69 332 l 664 332 l 664 529 l 69 529 l 69 332 "},"—":{"ha":1247,"x_min":69,"x_max":1178,"o":"m 69 332 l 1178 332 l 1178 529 l 69 529 l 69 332 "},"‘":{"ha":397,"x_min":79,"x_max":354,"o":"m 79 532 l 304 532 l 304 754 l 218 754 q 248 849 213 814 q 354 892 283 885 l 336 979 q 144 915 209 977 q 79 720 79 853 l 79 532 "},"’":{"ha":397,"x_min":43,"x_max":318,"o":"m 43 612 l 61 525 q 253 589 189 527 q 318 785 318 651 l 318 972 l 93 972 l 93 750 l 179 750 q 149 655 184 690 q 43 612 114 619 "},"‚":{"ha":397,"x_min":36,"x_max":311,"o":"m 36 -138 l 54 -225 q 247 -161 182 -223 q 311 35 311 -99 l 311 222 l 86 222 l 86 0 l 172 0 q 142 -95 178 -60 q 36 -138 107 -131 "},"“":{"ha":749,"x_min":79,"x_max":707,"o":"m 79 532 l 304 532 l 304 754 l 218 754 q 248 849 213 814 q 354 892 283 885 l 336 979 q 144 915 209 977 q 79 720 79 853 l 79 532 m 432 532 l 657 532 l 657 754 l 571 754 q 601 849 566 814 q 707 892 635 885 l 689 979 q 497 915 562 977 q 432 720 432 853 l 432 532 "},"”":{"ha":749,"x_min":43,"x_max":671,"o":"m 43 612 l 61 525 q 253 589 189 527 q 318 785 318 651 l 318 972 l 93 972 l 93 750 l 179 750 q 149 655 184 690 q 43 612 114 619 m 396 612 l 414 525 q 606 589 541 527 q 671 785 671 651 l 671 972 l 446 972 l 446 750 l 532 750 q 502 655 537 690 q 396 612 467 619 "},"„":{"ha":749,"x_min":36,"x_max":664,"o":"m 36 -138 l 54 -225 q 247 -161 182 -223 q 311 35 311 -99 l 311 222 l 86 222 l 86 0 l 172 0 q 142 -95 178 -60 q 36 -138 107 -131 m 389 -138 l 407 -225 q 599 -161 534 -223 q 664 35 664 -99 l 664 222 l 439 222 l 439 0 l 525 0 q 495 -95 530 -60 q 389 -138 460 -131 "},"•":{"ha":694,"x_min":140,"x_max":554,"o":"m 201 343 q 347 282 262 282 q 493 343 433 282 q 554 489 554 404 q 493 635 554 574 q 347 696 433 696 q 201 635 262 696 q 140 489 140 574 q 171 373 140 404 q 201 343 201 343 "},"…":{"ha":1166,"x_min":86,"x_max":1080,"o":"m 86 0 l 306 0 l 306 216 l 86 216 l 86 0 m 473 0 l 693 0 l 693 216 l 473 216 l 473 0 m 861 0 l 1080 0 l 1080 216 l 861 216 l 861 0 "}," ":{"ha":258,"x_min":0,"x_max":0,"o":""},"‹":{"ha":517,"x_min":57,"x_max":452,"o":"m 57 367 l 290 56 l 452 136 l 271 374 l 452 611 l 290 689 l 57 378 l 57 367 "},"›":{"ha":517,"x_min":66,"x_max":461,"o":"m 66 134 l 228 56 l 461 367 l 461 378 l 228 689 l 66 608 l 248 371 l 66 134 "}," ":{"ha":323,"x_min":0,"x_max":0,"o":""},"™":{"ha":958,"x_min":36,"x_max":907,"o":"m 36 886 l 164 886 l 164 545 l 261 545 l 261 886 l 389 886 l 389 972 l 36 972 l 36 886 m 479 545 l 571 545 l 571 833 l 689 646 l 697 646 l 815 833 l 815 545 l 907 545 l 907 972 l 807 972 l 694 791 l 582 972 l 479 972 l 479 545 "},"◼":{"ha":743,"x_min":0,"x_max":743,"o":"m 0 0 l 743 0 l 743 743 l 0 743 l 0 0 "},"ﬁ":{"ha":949,"x_min":43,"x_max":851,"o":"m 43 564 l 131 564 l 131 0 l 342 0 l 342 564 l 510 564 l 510 736 l 339 736 l 339 765 q 415 846 339 846 q 511 828 462 846 l 511 1003 q 361 1023 447 1023 q 131 785 131 1023 l 131 737 l 43 737 l 43 564 m 629 827 l 851 827 l 851 1014 l 629 1014 l 629 827 m 635 0 l 846 0 l 846 745 l 635 745 l 635 0 "},"ﬂ":{"ha":949,"x_min":43,"x_max":846,"o":"m 43 564 l 131 564 l 131 0 l 342 0 l 342 564 l 510 564 l 510 736 l 339 736 l 339 765 q 415 846 339 846 q 511 828 462 846 l 511 1003 q 361 1023 447 1023 q 131 785 131 1023 l 131 737 l 43 737 l 43 564 m 635 0 l 846 0 l 846 1014 l 635 1014 l 635 0 "}}}
